PathFileType	4	(X/Y/Z)	c:/Users/goper/Files/vsCode/490R/osim_files/A06/A06_SSWS_03.trc
DataRate	CameraRate	NumFrames	NumMarkers	Units                	OrigDataRate	OrigDataStartFrame	OrigNumFrames
120.00	120.00	9	36	mm	120.0	714	1142
                Frame#	Time	LPSIS			LASIS			LTH1			LTH2			LTH3			LTH4			LLFE			LMFE			LSH1			LSH2			LSH3			LSH4			LLMAL			LMMAL			LCAL			LMTP5			LTOE			LMTP1			RPSIS			RASIS			RTH1			RTH2			RTH3			RTH4			RLFE			RMFE			RSH1			RSH2			RSH3			RSH4			RLMAL			RMMAL			RCAL			RMTP1			RTOE			RMTP5		
		X1	Y1	Z1	X2	Y2	Z2	X3	Y3	Z3	X4	Y4	Z4	X5	Y5	Z5	X6	Y6	Z6	X7	Y7	Z7	X8	Y8	Z8	X9	Y9	Z9	X10	Y10	Z10	X11	Y11	Z11	X12	Y12	Z12	X13	Y13	Z13	X14	Y14	Z14	X15	Y15	Z15	X16	Y16	Z16	X17	Y17	Z17	X18	Y18	Z18	X19	Y19	Z19	X20	Y20	Z20	X21	Y21	Z21	X22	Y22	Z22	X23	Y23	Z23	X24	Y24	Z24	X25	Y25	Z25	X26	Y26	Z26	X27	Y27	Z27	X28	Y28	Z28	X29	Y29	Z29	X30	Y30	Z30	X31	Y31	Z31	X32	Y32	Z32	X33	Y33	Z33	X34	Y34	Z34	X35	Y35	Z35	X36	Y36	Z36

714	5.94167	-2630.20801	1000.51086	260.72479	-2816.07349	951.96667	344.44580	-2853.22290	600.42950	389.19150	-2875.82544	564.43225	382.58176	-2911.58203	626.14197	379.74652	-2924.13110	585.43964	375.84229	-2924.81250	506.02460	367.36151	-2928.76050	503.32779	257.43823	-2854.51953	420.19141	378.32016	-2851.19434	374.07114	379.45755	-2914.07373	411.26019	371.22784	-2905.83643	369.94980	373.63245	-2810.38574	125.53161	328.76260	-2839.39258	136.78639	249.13580	-2748.05200	125.09411	271.50674	-2913.02661	54.87120	352.54266	-2959.36450	73.20892	303.72745	-2939.03467	68.44482	263.48773	-2643.10278	1010.93585	129.19537	-2821.85938	966.46185	86.53915	-2671.89014	596.88422	55.72560	-2673.37891	554.67468	54.19671	-2736.54810	591.75867	62.93224	-2725.27539	547.29877	61.71500	-2684.57837	439.11765	84.26015	-2685.13062	442.77689	172.82758	-2644.37671	287.21503	102.30833	-2639.88794	240.25720	106.21209	-2704.67456	277.56738	114.58670	-2691.58740	231.58701	112.22066	-2620.61768	103.97550	104.18738	-2632.55933	109.47800	185.94786	-2562.12842	86.02288	151.40277	-2763.64526	57.27357	181.83470	-2779.32080	67.04652	142.38551	-2752.83862	52.98137	94.26708
715	5.95000	-2638.60449	1000.25793	260.48199	-2824.91382	951.11859	344.58545	-2862.86719	600.00360	388.91940	-2884.90625	564.21161	381.95807	-2921.06030	625.75812	380.11716	-2934.13623	585.27350	376.32828	-2935.14258	506.19519	366.85989	-2939.54932	503.58356	257.21631	-2868.58032	417.10254	377.40060	-2867.69458	371.00961	378.60434	-2928.47461	411.46130	370.86154	-2922.42603	369.63409	373.34216	-2840.68848	120.41518	327.93756	-2868.14526	131.48755	247.12784	-2777.85107	117.67382	269.60086	-2946.93286	55.38040	352.59418	-2992.52075	76.43304	303.93970	-2972.79736	70.29489	263.75418	-2652.75562	1010.37756	129.43263	-2830.99634	965.53430	86.66600	-2678.16089	597.14545	55.95686	-2678.95679	554.85553	54.21378	-2741.05151	590.56580	63.38928	-2730.83203	546.87988	61.80191	-2688.38086	439.17380	84.25163	-2689.37280	442.81711	172.84778	-2647.34619	287.60492	102.35299	-2641.90088	240.75325	106.17036	-2707.17065	277.28864	114.60925	-2693.01514	231.12149	112.21763	-2620.84644	104.16264	104.14140	-2632.79102	109.62914	185.86536	-2562.21240	86.32299	151.30809	-2764.68091	57.77475	180.64279	-2779.51562	66.69878	142.55275	-2753.04224	52.97150	94.26331
716	5.95833	-2647.89258	999.64929	260.62549	-2833.99194	949.83118	345.07159	-2872.08960	599.56885	388.29092	-2894.79883	563.43658	381.77551	-2930.08447	625.16858	379.96167	-2943.26221	584.65594	376.10358	-2945.11353	506.02032	366.28247	-2949.98926	503.53329	256.84149	-2882.47974	413.92773	376.49921	-2883.63794	368.00238	377.90112	-2942.90674	411.81213	370.70453	-2938.73145	369.45294	372.96622	-2871.18311	115.93319	327.27493	-2898.99731	129.94675	248.96844	-2809.95117	109.70248	268.58704	-2980.35791	56.53906	352.65387	-3025.43970	79.96656	304.69836	-3006.20679	73.11081	264.10532	-2661.34106	1010.23480	129.32837	-2840.56030	964.84747	86.96375	-2684.54810	597.36609	56.26866	-2684.69360	554.95819	54.24066	-2748.30933	590.75287	63.12105	-2736.38159	546.38354	61.87587	-2693.21606	439.16620	84.29568	-2693.63892	442.72803	172.88542	-2650.13354	288.02225	102.38998	-2644.17773	241.32135	106.20444	-2709.80054	277.11664	114.34253	-2697.18384	231.12236	112.57988	-2621.61304	104.62822	103.97903	-2633.10596	109.81474	185.84991	-2562.37744	86.62115	151.26355	-2764.02124	56.70724	181.90714	-2779.69897	66.50758	142.56371	-2753.25098	53.00521	94.29202
717	5.96667	-2657.13354	998.93610	260.86090	-2843.07129	949.03546	344.92557	-2880.91626	598.39508	387.59930	-2903.53394	562.32697	381.10342	-2938.72827	624.07605	379.76962	-2951.76245	583.85541	375.20059	-2954.39160	505.41519	365.45291	-2959.95410	503.20697	256.31476	-2896.01367	410.62064	375.46616	-2900.10962	364.90848	376.90585	-2956.60425	411.63770	370.40045	-2954.66528	369.25229	372.54474	-2901.07910	112.39429	326.56500	-2929.40356	128.16351	248.63580	-2839.98267	103.18313	267.67258	-3013.52148	58.67455	352.86197	-3057.79468	84.69298	305.26443	-3039.12134	76.86926	264.51654	-2670.40796	1009.75928	129.50848	-2849.27515	963.48138	87.00623	-2689.75928	596.26459	55.48772	-2690.40112	554.98920	54.27450	-2754.20947	590.24078	63.19788	-2742.43408	546.29565	62.13313	-2697.11157	439.16992	84.39199	-2697.95557	442.72061	172.97154	-2652.79419	288.50165	102.37370	-2646.24756	241.78426	106.16022	-2712.69019	276.89725	114.47111	-2698.02954	230.57703	112.65213	-2621.87402	104.85691	103.92528	-2633.84497	110.03390	185.69293	-2562.33521	87.17274	151.03435	-2764.08765	56.57952	181.92284	-2779.85425	66.29544	142.58826	-2753.36841	52.98082	94.26431
718	5.97500	-2668.26880	997.14282	260.87170	-2852.61133	947.40338	344.75455	-2886.27783	596.49573	385.32782	-2912.69458	560.37128	379.59045	-2947.03320	622.72192	379.44788	-2960.38306	582.31665	375.33389	-2963.47656	504.47363	364.56668	-2969.53589	502.46915	255.64159	-2909.49170	407.14633	374.53604	-2915.97217	361.81558	376.07031	-2969.90210	411.50885	370.00433	-2970.24756	369.01413	372.18829	-2931.15503	109.32420	326.25214	-2959.42334	127.00877	248.41867	-2873.44287	96.14643	267.89014	-3046.11768	61.61831	352.57367	-3089.19971	90.20620	306.18365	-3071.59717	82.09303	264.74072	-2679.66772	1009.17316	129.89505	-2858.33081	963.01367	87.08864	-2695.85083	596.20929	55.66002	-2695.94116	554.97650	54.36092	-2760.16040	589.67169	63.34638	-2747.47607	545.28571	62.12500	-2701.93701	439.10956	84.48711	-2702.33154	442.61606	173.02065	-2655.13550	288.93750	102.38892	-2648.47510	242.35023	106.18656	-2714.94800	276.79712	114.43211	-2700.65039	230.15312	112.08221	-2622.18726	105.13507	103.86250	-2633.12183	110.19362	185.26797	-2562.53394	87.44861	150.97659	-2764.18457	56.42599	181.94250	-2780.34912	66.17913	142.25296	-2753.54565	53.00096	94.27232
719	5.98333	-2676.88867	996.92719	262.00830	-2861.85083	946.35620	345.64767	-2894.36963	594.52612	384.21136	-2919.99536	558.84259	379.33545	-2955.02295	620.86139	378.95978	-2968.30054	580.65656	374.33493	-2972.26929	503.20901	363.47162	-2978.70166	501.37793	254.80151	-2922.80884	403.53287	373.64325	-2931.69263	358.68243	375.29599	-2982.87622	411.25861	369.42822	-2985.52441	368.78891	371.73016	-2961.06689	107.00977	326.12311	-2989.11475	126.69765	248.27190	-2904.11890	89.53407	267.75760	-3077.62549	65.98595	352.78461	-3120.13672	96.93721	306.73019	-3102.80322	87.29738	265.43900	-2689.50342	1008.27106	130.59232	-2868.09546	961.57983	87.63828	-2702.04907	596.20178	55.79596	-2701.69971	555.01227	54.53260	-2766.15112	589.09235	63.61351	-2753.07446	544.71320	62.24397	-2705.86475	439.07501	84.55606	-2706.96118	442.65656	173.06508	-2657.94995	289.33664	102.41193	-2650.62280	242.81061	106.17422	-2716.64600	276.57925	114.25788	-2702.30273	230.50429	112.58441	-2622.44043	105.39913	103.80392	-2633.43945	110.40028	185.27454	-2562.98120	87.51797	151.12407	-2764.34473	56.30011	181.97223	-2780.25220	65.62822	142.68036	-2753.73364	52.99823	94.22985
720	5.99167	-2686.40649	995.78162	262.57715	-2871.36719	945.17432	345.56631	-2902.40649	592.18005	383.03488	-2926.97290	556.68018	377.83539	-2962.79736	618.76880	378.06790	-2976.20801	578.21967	374.10501	-2980.49341	501.58694	362.03491	-2987.52734	499.90228	253.72246	-2935.93945	399.77905	372.68863	-2946.61646	355.69284	374.32422	-2995.16479	410.67865	368.64624	-3000.25195	368.58835	371.18304	-2990.70972	105.32070	326.39517	-3017.90576	126.95924	248.31274	-2934.16089	85.98634	267.09674	-3108.52100	71.11452	353.17911	-3150.82764	104.44837	306.58875	-3133.02490	93.78479	265.88068	-2697.90918	1007.89380	130.83449	-2877.12109	960.34619	87.86090	-2708.33960	596.19293	55.99030	-2707.54492	554.96460	54.75481	-2770.47266	587.64014	64.44911	-2758.84619	544.13763	62.43698	-2710.31445	439.00729	84.70448	-2711.43823	442.79166	174.01331	-2660.75830	289.70642	102.47870	-2652.92334	243.37971	106.21875	-2719.39233	276.53177	114.31388	-2704.25269	230.55908	112.79408	-2622.71875	105.65839	103.76738	-2633.69629	110.63341	185.31911	-2563.15015	87.91743	151.06859	-2764.40210	56.15316	181.99837	-2780.41797	65.44145	142.69785	-2754.56958	52.87840	94.06696
721	6.00000	-2695.98560	994.63214	263.28790	-2881.30127	943.65558	345.72205	-2911.04761	589.19098	382.19540	-2935.31567	553.88373	376.83527	-2970.47290	616.11102	377.46274	-2983.80981	575.55719	373.19241	-2988.75928	499.72287	360.48203	-2996.06348	498.11047	252.54367	-2949.01904	396.19354	371.77142	-2961.76025	352.91562	373.52496	-3007.46558	410.26105	367.81708	-3014.84424	368.27155	370.74179	-3019.39966	104.54795	326.72571	-3045.17700	127.00940	247.94466	-2964.24365	80.67636	268.03693	-3139.47583	76.66522	353.49390	-3178.89478	111.93933	307.32138	-3162.09644	101.02035	266.27646	-2706.99390	1007.07855	131.51561	-2885.69043	958.76178	87.85983	-2714.77954	596.11133	56.21421	-2713.43286	554.87091	54.92152	-2778.45288	587.74493	64.06488	-2765.09692	543.92004	62.83287	-2714.84253	438.89532	84.81027	-2716.36157	442.86700	174.22513	-2663.53052	290.16666	102.55281	-2655.26099	243.91629	106.28616	-2721.95874	276.30252	114.41144	-2707.48926	230.89749	112.73500	-2622.59766	105.69956	103.82590	-2634.17065	110.76250	185.44458	-2563.35010	88.35857	151.02679	-2764.19946	56.13007	182.30640	-2780.52686	65.45111	142.43503	-2754.75708	52.86872	94.05052
722	6.00833	-2705.57642	993.37701	264.04468	-2891.23560	941.76819	346.02841	-2918.50781	586.32843	381.15732	-2940.22827	551.55627	374.90747	-2977.35596	612.90985	376.87534	-2990.85303	572.95453	371.73782	-2996.86328	497.56863	358.95447	-3004.13892	495.93790	251.40715	-2961.97095	392.89987	370.65948	-2977.08545	350.31024	372.89331	-3019.71851	409.78186	367.11453	-3028.38330	369.76572	371.57584	-3046.99341	104.51747	327.20184	-3071.88623	127.59956	248.77855	-2991.42310	78.37552	268.45786	-3169.45020	83.24888	353.97092	-3205.34888	120.63770	308.05078	-3189.64331	108.48148	266.66797	-2716.01782	1006.19263	132.22894	-2894.86230	957.72375	87.99374	-2722.97168	597.70569	55.29025	-2719.38086	554.76392	55.00995	-2783.79980	586.51544	65.03481	-2770.50513	542.73389	62.82201	-2719.45728	438.73679	84.96524	-2720.73755	442.58432	174.28720	-2666.48511	290.62939	102.63079	-2657.55200	244.43895	106.34864	-2724.67480	276.00806	114.54359	-2709.26855	230.86116	112.78223	-2622.94116	106.03185	103.86160	-2634.47363	111.08328	185.52211	-2563.38037	89.10520	151.06088	-2764.44482	56.07109	182.17712	-2780.71777	64.98428	142.76326	-2754.93604	52.84806	94.03973
